<mxfile host="Electron" modified="2025-05-03T17:40:28.570Z" agent="Mozilla/5.0 (Windows NT 10.0; Win64; x64) AppleWebKit/537.36 (KHTML, like Gecko) draw.io/23.0.2 Chrome/120.0.6099.109 Electron/28.1.0 Safari/537.36" etag="ybKO6bafV69wsOF1eYar" version="23.0.2" type="device">
  <diagram name="Página-1" id="b8iFSpqcFMasPoEN8qkw">
    <mxGraphModel dx="1276" dy="613" grid="1" gridSize="10" guides="1" tooltips="1" connect="1" arrows="1" fold="1" page="1" pageScale="1" pageWidth="827" pageHeight="1169" math="0" shadow="0">
      <root>
        <mxCell id="0" />
        <mxCell id="1" parent="0" />
        <mxCell id="xZvAGSc6EZFs4SLPWhzJ-41" style="edgeStyle=orthogonalEdgeStyle;rounded=0;orthogonalLoop=1;jettySize=auto;html=1;exitX=0.5;exitY=1;exitDx=0;exitDy=0;exitPerimeter=0;" edge="1" parent="1" source="xZvAGSc6EZFs4SLPWhzJ-3">
          <mxGeometry relative="1" as="geometry">
            <mxPoint x="414" y="130" as="targetPoint" />
          </mxGeometry>
        </mxCell>
        <mxCell id="xZvAGSc6EZFs4SLPWhzJ-3" value="unicio" style="strokeWidth=2;html=1;shape=mxgraph.flowchart.start_1;whiteSpace=wrap;" vertex="1" parent="1">
          <mxGeometry x="364" y="40" width="100" height="60" as="geometry" />
        </mxCell>
        <mxCell id="xZvAGSc6EZFs4SLPWhzJ-36" style="edgeStyle=orthogonalEdgeStyle;rounded=0;orthogonalLoop=1;jettySize=auto;html=1;exitX=1;exitY=0.5;exitDx=0;exitDy=0;entryX=0;entryY=0.5;entryDx=0;entryDy=0;" edge="1" parent="1" source="xZvAGSc6EZFs4SLPWhzJ-7" target="xZvAGSc6EZFs4SLPWhzJ-16">
          <mxGeometry relative="1" as="geometry" />
        </mxCell>
        <mxCell id="xZvAGSc6EZFs4SLPWhzJ-7" value="si" style="text;html=1;strokeColor=none;fillColor=none;align=center;verticalAlign=middle;whiteSpace=wrap;rounded=0;" vertex="1" parent="1">
          <mxGeometry x="430" y="475" width="60" height="30" as="geometry" />
        </mxCell>
        <mxCell id="xZvAGSc6EZFs4SLPWhzJ-40" style="edgeStyle=orthogonalEdgeStyle;rounded=0;orthogonalLoop=1;jettySize=auto;html=1;exitX=0.5;exitY=1;exitDx=0;exitDy=0;" edge="1" parent="1" source="xZvAGSc6EZFs4SLPWhzJ-11">
          <mxGeometry relative="1" as="geometry">
            <mxPoint x="400" y="280" as="targetPoint" />
          </mxGeometry>
        </mxCell>
        <mxCell id="xZvAGSc6EZFs4SLPWhzJ-11" value="ingresa el usuario" style="shape=parallelogram;html=1;strokeWidth=2;perimeter=parallelogramPerimeter;whiteSpace=wrap;rounded=1;arcSize=12;size=0.23;" vertex="1" parent="1">
          <mxGeometry x="326" y="140" width="164" height="110" as="geometry" />
        </mxCell>
        <mxCell id="xZvAGSc6EZFs4SLPWhzJ-12" value="ingresa la contraseña" style="shape=parallelogram;html=1;strokeWidth=2;perimeter=parallelogramPerimeter;whiteSpace=wrap;rounded=1;arcSize=12;size=0.23;" vertex="1" parent="1">
          <mxGeometry x="294" y="290" width="170" height="120" as="geometry" />
        </mxCell>
        <mxCell id="xZvAGSc6EZFs4SLPWhzJ-34" style="edgeStyle=orthogonalEdgeStyle;rounded=0;orthogonalLoop=1;jettySize=auto;html=1;exitX=0;exitY=0.5;exitDx=0;exitDy=0;exitPerimeter=0;" edge="1" parent="1" source="xZvAGSc6EZFs4SLPWhzJ-13" target="xZvAGSc6EZFs4SLPWhzJ-14">
          <mxGeometry relative="1" as="geometry" />
        </mxCell>
        <mxCell id="xZvAGSc6EZFs4SLPWhzJ-38" style="edgeStyle=orthogonalEdgeStyle;rounded=0;orthogonalLoop=1;jettySize=auto;html=1;exitX=1;exitY=0.5;exitDx=0;exitDy=0;exitPerimeter=0;" edge="1" parent="1" source="xZvAGSc6EZFs4SLPWhzJ-13" target="xZvAGSc6EZFs4SLPWhzJ-7">
          <mxGeometry relative="1" as="geometry" />
        </mxCell>
        <mxCell id="xZvAGSc6EZFs4SLPWhzJ-13" value="usuario y contraseña es correcta?" style="strokeWidth=2;html=1;shape=mxgraph.flowchart.decision;whiteSpace=wrap;" vertex="1" parent="1">
          <mxGeometry x="320" y="440" width="100" height="100" as="geometry" />
        </mxCell>
        <mxCell id="xZvAGSc6EZFs4SLPWhzJ-14" value="no" style="text;html=1;strokeColor=none;fillColor=none;align=center;verticalAlign=middle;whiteSpace=wrap;rounded=0;" vertex="1" parent="1">
          <mxGeometry x="240" y="475" width="60" height="30" as="geometry" />
        </mxCell>
        <mxCell id="xZvAGSc6EZFs4SLPWhzJ-25" style="edgeStyle=orthogonalEdgeStyle;rounded=0;orthogonalLoop=1;jettySize=auto;html=1;exitX=0.5;exitY=1;exitDx=0;exitDy=0;" edge="1" parent="1" source="xZvAGSc6EZFs4SLPWhzJ-15" target="xZvAGSc6EZFs4SLPWhzJ-24">
          <mxGeometry relative="1" as="geometry">
            <Array as="points">
              <mxPoint x="150" y="695" />
              <mxPoint x="220" y="695" />
              <mxPoint x="220" y="850" />
            </Array>
          </mxGeometry>
        </mxCell>
        <mxCell id="xZvAGSc6EZFs4SLPWhzJ-15" value="usuario y contraseña incorrecta" style="shape=parallelogram;html=1;strokeWidth=2;perimeter=parallelogramPerimeter;whiteSpace=wrap;rounded=1;arcSize=12;size=0.23;" vertex="1" parent="1">
          <mxGeometry x="70" y="440" width="160" height="130" as="geometry" />
        </mxCell>
        <mxCell id="xZvAGSc6EZFs4SLPWhzJ-42" style="edgeStyle=orthogonalEdgeStyle;rounded=0;orthogonalLoop=1;jettySize=auto;html=1;exitX=0.5;exitY=1;exitDx=0;exitDy=0;" edge="1" parent="1" source="xZvAGSc6EZFs4SLPWhzJ-16">
          <mxGeometry relative="1" as="geometry">
            <mxPoint x="600" y="560" as="targetPoint" />
          </mxGeometry>
        </mxCell>
        <mxCell id="xZvAGSc6EZFs4SLPWhzJ-16" value="usuario y contraseña correcta" style="rounded=1;whiteSpace=wrap;html=1;absoluteArcSize=1;arcSize=14;strokeWidth=2;" vertex="1" parent="1">
          <mxGeometry x="500" y="440" width="200" height="100" as="geometry" />
        </mxCell>
        <mxCell id="xZvAGSc6EZFs4SLPWhzJ-28" style="edgeStyle=orthogonalEdgeStyle;rounded=0;orthogonalLoop=1;jettySize=auto;html=1;exitX=0;exitY=0.5;exitDx=0;exitDy=0;exitPerimeter=0;" edge="1" parent="1" source="xZvAGSc6EZFs4SLPWhzJ-17" target="xZvAGSc6EZFs4SLPWhzJ-20">
          <mxGeometry relative="1" as="geometry" />
        </mxCell>
        <mxCell id="xZvAGSc6EZFs4SLPWhzJ-29" style="edgeStyle=orthogonalEdgeStyle;rounded=0;orthogonalLoop=1;jettySize=auto;html=1;exitX=1;exitY=0.5;exitDx=0;exitDy=0;exitPerimeter=0;" edge="1" parent="1" source="xZvAGSc6EZFs4SLPWhzJ-17" target="xZvAGSc6EZFs4SLPWhzJ-19">
          <mxGeometry relative="1" as="geometry" />
        </mxCell>
        <mxCell id="xZvAGSc6EZFs4SLPWhzJ-17" value="unicio exitoso" style="strokeWidth=2;html=1;shape=mxgraph.flowchart.decision;whiteSpace=wrap;" vertex="1" parent="1">
          <mxGeometry x="550" y="570" width="100" height="100" as="geometry" />
        </mxCell>
        <mxCell id="xZvAGSc6EZFs4SLPWhzJ-19" value="si" style="text;html=1;strokeColor=none;fillColor=none;align=center;verticalAlign=middle;whiteSpace=wrap;rounded=0;" vertex="1" parent="1">
          <mxGeometry x="660" y="605" width="60" height="30" as="geometry" />
        </mxCell>
        <mxCell id="xZvAGSc6EZFs4SLPWhzJ-20" value="no" style="text;html=1;strokeColor=none;fillColor=none;align=center;verticalAlign=middle;whiteSpace=wrap;rounded=0;" vertex="1" parent="1">
          <mxGeometry x="464" y="605" width="60" height="30" as="geometry" />
        </mxCell>
        <mxCell id="xZvAGSc6EZFs4SLPWhzJ-21" value="imprimir 1 reporte&amp;nbsp;" style="strokeWidth=2;html=1;shape=mxgraph.flowchart.document2;whiteSpace=wrap;size=0.25;" vertex="1" parent="1">
          <mxGeometry x="300" y="600" width="140" height="80" as="geometry" />
        </mxCell>
        <mxCell id="xZvAGSc6EZFs4SLPWhzJ-23" value="Presenta&amp;nbsp; 1 documentos con todos los reportes de inicio de sesion&amp;nbsp;" style="strokeWidth=2;html=1;shape=mxgraph.flowchart.multi-document;whiteSpace=wrap;" vertex="1" parent="1">
          <mxGeometry x="770" y="585" width="170" height="95" as="geometry" />
        </mxCell>
        <mxCell id="xZvAGSc6EZFs4SLPWhzJ-24" value="Fin" style="strokeWidth=2;html=1;shape=mxgraph.flowchart.start_1;whiteSpace=wrap;" vertex="1" parent="1">
          <mxGeometry x="358" y="820" width="100" height="60" as="geometry" />
        </mxCell>
        <mxCell id="xZvAGSc6EZFs4SLPWhzJ-26" style="edgeStyle=orthogonalEdgeStyle;rounded=0;orthogonalLoop=1;jettySize=auto;html=1;exitX=1;exitY=0.75;exitDx=0;exitDy=0;exitPerimeter=0;entryX=0.324;entryY=-0.013;entryDx=0;entryDy=0;entryPerimeter=0;" edge="1" parent="1" source="xZvAGSc6EZFs4SLPWhzJ-21" target="xZvAGSc6EZFs4SLPWhzJ-24">
          <mxGeometry relative="1" as="geometry">
            <Array as="points">
              <mxPoint x="390" y="660" />
            </Array>
          </mxGeometry>
        </mxCell>
        <mxCell id="xZvAGSc6EZFs4SLPWhzJ-27" style="edgeStyle=orthogonalEdgeStyle;rounded=0;orthogonalLoop=1;jettySize=auto;html=1;exitX=0;exitY=0.91;exitDx=0;exitDy=0;exitPerimeter=0;entryX=0.72;entryY=0;entryDx=0;entryDy=0;entryPerimeter=0;" edge="1" parent="1" source="xZvAGSc6EZFs4SLPWhzJ-23" target="xZvAGSc6EZFs4SLPWhzJ-24">
          <mxGeometry relative="1" as="geometry">
            <Array as="points">
              <mxPoint x="720" y="790" />
              <mxPoint x="430" y="790" />
            </Array>
          </mxGeometry>
        </mxCell>
        <mxCell id="xZvAGSc6EZFs4SLPWhzJ-30" style="edgeStyle=orthogonalEdgeStyle;rounded=0;orthogonalLoop=1;jettySize=auto;html=1;exitX=1;exitY=0.5;exitDx=0;exitDy=0;entryX=-0.016;entryY=0.343;entryDx=0;entryDy=0;entryPerimeter=0;" edge="1" parent="1" source="xZvAGSc6EZFs4SLPWhzJ-19" target="xZvAGSc6EZFs4SLPWhzJ-23">
          <mxGeometry relative="1" as="geometry" />
        </mxCell>
        <mxCell id="xZvAGSc6EZFs4SLPWhzJ-31" style="edgeStyle=orthogonalEdgeStyle;rounded=0;orthogonalLoop=1;jettySize=auto;html=1;exitX=0;exitY=0.5;exitDx=0;exitDy=0;entryX=1;entryY=0.25;entryDx=0;entryDy=0;entryPerimeter=0;" edge="1" parent="1" source="xZvAGSc6EZFs4SLPWhzJ-20" target="xZvAGSc6EZFs4SLPWhzJ-21">
          <mxGeometry relative="1" as="geometry" />
        </mxCell>
        <mxCell id="xZvAGSc6EZFs4SLPWhzJ-35" style="edgeStyle=orthogonalEdgeStyle;rounded=0;orthogonalLoop=1;jettySize=auto;html=1;exitX=0;exitY=0.5;exitDx=0;exitDy=0;entryX=0.908;entryY=0.382;entryDx=0;entryDy=0;entryPerimeter=0;" edge="1" parent="1" source="xZvAGSc6EZFs4SLPWhzJ-14" target="xZvAGSc6EZFs4SLPWhzJ-15">
          <mxGeometry relative="1" as="geometry" />
        </mxCell>
        <mxCell id="xZvAGSc6EZFs4SLPWhzJ-39" style="edgeStyle=orthogonalEdgeStyle;rounded=0;orthogonalLoop=1;jettySize=auto;html=1;exitX=0.5;exitY=1;exitDx=0;exitDy=0;entryX=0.5;entryY=0;entryDx=0;entryDy=0;entryPerimeter=0;" edge="1" parent="1" source="xZvAGSc6EZFs4SLPWhzJ-12" target="xZvAGSc6EZFs4SLPWhzJ-13">
          <mxGeometry relative="1" as="geometry" />
        </mxCell>
      </root>
    </mxGraphModel>
  </diagram>
</mxfile>
